<svg width="8" height="10" viewBox="0 0 8 10" fill="none" xmlns="http://www.w3.org/2000/svg">
<path fill-rule="evenodd" clip-rule="evenodd" d="M4.70711 9.70711C4.31658 10.0976 3.68342 10.0976 3.29289 9.70711L0.292893 6.70711C-0.0976318 6.31658 -0.0976318 5.68342 0.292893 5.29289C0.683417 4.90237 1.31658 4.90237 1.70711 5.29289L3 6.58579L3 1C3 0.447715 3.44771 3.97973e-07 4 3.49691e-07C4.55228 3.01409e-07 5 0.447715 5 1L5 6.58579L6.29289 5.29289C6.68342 4.90237 7.31658 4.90237 7.70711 5.29289C8.09763 5.68342 8.09763 6.31658 7.70711 6.70711L4.70711 9.70711Z" fill="#B3BAC5"/>
</svg>
